<svg viewBox="0 0 24 24" height="24" width="24" xmlns="http://www.w3.org/2000/svg"><path d="M11.500 17.500 A6.000 6.000 0 1 0 23.500 17.500 A6.000 6.000 0 1 0 11.500 17.500 Z" fill="none" stroke="#000" stroke-linecap="round" stroke-linejoin="round"    />,<path d="M15.625,16.042A1.875,1.875,0,1,1,17.5,17.917v1" fill="none" stroke="#000" stroke-linecap="round" stroke-linejoin="round"    />,<path d="M17.5,20.917a.25.25,0,1,1-.25.25.25.25,0,0,1,.25-.25" fill="none" stroke="#000" stroke-linecap="round" stroke-linejoin="round"    />,<path d="M10.5,23.5h-9a1,1,0,0,1-1-1V1.5a1,1,0,0,1,1-1H14.793A1,1,0,0,1,15.5.793L19.207,4.5a1,1,0,0,1,.293.707V8.5" fill="none" stroke="#000" stroke-linecap="round" stroke-linejoin="round"    /></svg>