<svg viewBox="0 0 24 24" height="24" width="24" xmlns="http://www.w3.org/2000/svg"><path d="M0.750 7.500 A6.000 6.000 0 1 0 12.750 7.500 A6.000 6.000 0 1 0 0.750 7.500 Z" fill="none" stroke="#000" stroke-linecap="round" stroke-linejoin="round" stroke-width="1.5"   />,<path d="M4.098 7.5L6.75 7.5 6.75 4.848" fill="none" stroke="#000" stroke-linecap="round" stroke-linejoin="round" stroke-width="1.5"   />,<path d="M14.25,12h1.5a1.5,1.5,0,0,1,1.5,1.5v5.288" fill="none" stroke="#000" stroke-linecap="round" stroke-linejoin="round" stroke-width="1.5"   />,<path d="M7.5,21H6.75a1.5,1.5,0,0,1-1.5-1.5v-3" fill="none" stroke="#000" stroke-linecap="round" stroke-linejoin="round" stroke-width="1.5"   />,<path d="M17.25,13.5h3a3,3,0,0,1,3,3v3a1.5,1.5,0,0,1-1.5,1.5H19.462" fill="none" stroke="#000" stroke-linecap="round" stroke-linejoin="round" stroke-width="1.5"   />,<path d="M15.750 20.625 A1.875 1.875 0 1 0 19.500 20.625 A1.875 1.875 0 1 0 15.750 20.625 Z" fill="none" stroke="#000" stroke-linecap="round" stroke-linejoin="round" stroke-width="1.5"   />,<path d="M7.500 20.625 A1.875 1.875 0 1 0 11.250 20.625 A1.875 1.875 0 1 0 7.500 20.625 Z" fill="none" stroke="#000" stroke-linecap="round" stroke-linejoin="round" stroke-width="1.5"   />,<path d="M15.788 21L11.25 21" fill="none" stroke="#000" stroke-linecap="round" stroke-linejoin="round" stroke-width="1.5"   />,<path d="M23.25 16.5L20.25 16.5" fill="none" stroke="#000" stroke-linecap="round" stroke-linejoin="round" stroke-width="1.5"   /></svg>