<svg viewBox="0 0 24 24" height="24" width="24" xmlns="http://www.w3.org/2000/svg"><path d="M17.500 7.498 A3.000 3.000 0 1 0 23.500 7.498 A3.000 3.000 0 1 0 17.500 7.498 Z" fill="none" stroke="#000" stroke-linecap="round" stroke-linejoin="round"    />,<path d="M11.000 3.498 A2.500 2.500 0 1 0 16.000 3.498 A2.500 2.500 0 1 0 11.000 3.498 Z" fill="none" stroke="#000" stroke-linecap="round" stroke-linejoin="round"    />,<path d="M4.000 5.498 A2.500 2.500 0 1 0 9.000 5.498 A2.500 2.500 0 1 0 4.000 5.498 Z" fill="none" stroke="#000" stroke-linecap="round" stroke-linejoin="round"    />,<path d="M1.000 11.498 A2.000 2.000 0 1 0 5.000 11.498 A2.000 2.000 0 1 0 1.000 11.498 Z" fill="none" stroke="#000" stroke-linecap="round" stroke-linejoin="round"    />,<path d="M2.500 17.498 A2.000 2.000 0 1 0 6.500 17.498 A2.000 2.000 0 1 0 2.500 17.498 Z" fill="none" stroke="#000" stroke-linecap="round" stroke-linejoin="round"    />,<path d="M8.000 21.498 A1.500 1.500 0 1 0 11.000 21.498 A1.500 1.500 0 1 0 8.000 21.498 Z" fill="none" stroke="#000" stroke-linecap="round" stroke-linejoin="round"    />,<path d="M13.875 21.644 A1.000 1.000 0 1 0 15.875 21.644 A1.000 1.000 0 1 0 13.875 21.644 Z" fill="none" stroke="#000" stroke-linecap="round" stroke-linejoin="round"    /></svg>