<svg viewBox="0 0 24 24" height="24" width="24" xmlns="http://www.w3.org/2000/svg"><path d="M17.174,8.25H4.561A1.5,1.5,0,0,0,3.125,9.663l-2,11.842A1.533,1.533,0,0,0,2.562,23.25H19.173a1.533,1.533,0,0,0,1.437-1.745l-2-11.842A1.5,1.5,0,0,0,17.174,8.25Z" fill="none" stroke="#000" stroke-linecap="round" stroke-linejoin="round" stroke-width="1.5"   />,<path d="M14.553,5.307A3.763,3.763,0,0,0,10.868,2.25h0A3.764,3.764,0,0,0,7.186,5.288" fill="none" stroke="#000" stroke-linecap="round" stroke-linejoin="round" stroke-width="1.5"   />,<path d="M20.618 0.75L18.368 3 18.368 5.25 20.618 5.25 22.868 3 20.618 0.75z" fill="none" stroke="#000" stroke-linecap="round" stroke-linejoin="round" stroke-width="1.5"   /></svg>