<svg xmlns="http://www.w3.org/2000/svg" viewBox="0 0 24 24" fill="currentColor" stroke="currentColor"><path d="M.75 7.5a6 6 0 1 0 12 0 6 6 0 1 0-12 0Z" fill="none" stroke-linecap="round" stroke-linejoin="round" stroke-width="1.5"/><path d="M4.098 7.5H6.75V4.848M14.25 12h1.5a1.5 1.5 0 0 1 1.5 1.5v5.288M7.5 21h-.75a1.5 1.5 0 0 1-1.5-1.5v-3m12-3h3a3 3 0 0 1 3 3v3a1.5 1.5 0 0 1-1.5 1.5h-2.288" fill="none" stroke-linecap="round" stroke-linejoin="round" stroke-width="1.5"/><path d="M15.75 20.625a1.875 1.875 0 1 0 3.75 0 1.875 1.875 0 1 0-3.75 0Zm-8.25 0a1.875 1.875 0 1 0 3.75 0 1.875 1.875 0 1 0-3.75 0Zm8.288.375H11.25m12-4.5h-3" fill="none" stroke-linecap="round" stroke-linejoin="round" stroke-width="1.5"/></svg>